<svg width="118" height="40" viewBox="0 0 118 40" fill="none" xmlns="http://www.w3.org/2000/svg">
<path d="M41.1907 4.10988C42.3137 4.10988 43.2257 4.05488 44.1297 4.12088C46.3757 4.28388 48.6297 4.26488 50.8677 4.63588C51.9247 4.81088 53.0097 4.80888 54.0757 4.93588C55.2697 5.07788 56.4567 5.27688 57.6477 5.44288C57.8726 5.47401 58.1 5.48372 58.3267 5.47189C60.4353 5.52322 62.5375 5.72371 64.6177 6.07188C66.2647 6.21088 67.8987 6.50788 69.5607 6.59188C71.0317 6.66688 72.4927 6.92789 73.9607 7.10389C74.0964 7.11556 74.2326 7.11923 74.3687 7.11488C77.3227 7.11488 80.2857 7.25988 83.2267 7.06188C85.0337 6.94088 86.8417 6.96188 88.6387 6.81688C90.5467 6.66088 92.4307 6.21688 94.3387 6.05588C97.0021 5.79946 99.64 5.32487 102.226 4.63688C106.485 3.67838 110.634 2.28334 114.608 0.473884C115.15 0.209884 115.739 -0.300118 116.347 0.234882C116.955 0.769882 116.698 1.48488 116.521 2.12588C116.208 3.33285 115.701 4.48109 115.021 5.52588C113.956 7.11888 113.07 8.83388 111.969 10.3989C110.777 12.2401 109.423 13.9704 107.922 15.5689L107.736 15.7529C107.814 15.7897 107.897 15.8166 107.983 15.8329C109.374 15.9329 110.764 16.0529 112.157 16.1049C113.382 16.1509 114.61 16.1139 115.837 16.1149C116.064 16.1 116.291 16.1037 116.518 16.1259C116.686 16.1309 116.849 16.1837 116.988 16.2782C117.127 16.3726 117.236 16.5047 117.303 16.6589C117.369 16.8132 117.391 16.9833 117.364 17.1492C117.338 17.3152 117.264 17.4701 117.153 17.5959C116.683 18.259 116.166 18.8873 115.606 19.4759C114.313 20.8159 113.006 22.1489 111.65 23.4229C110.89 24.1193 110.076 24.7546 109.217 25.3229C105.767 27.8009 101.924 29.6789 97.8487 30.8779C94.8427 31.6779 91.8487 32.5169 88.8257 33.2639C87.8767 33.4979 86.8257 33.3579 85.8937 33.6229C84.1707 34.1119 82.3687 33.5419 80.6747 34.1339C80.6295 34.1394 80.5839 34.1394 80.5387 34.1339C77.3777 34.3419 74.2147 34.4869 71.0457 34.4079C69.2997 33.8379 67.4387 34.4429 65.6857 33.8799C65.3719 33.8248 65.0513 33.8194 64.7357 33.8639C63.2129 33.8845 61.6934 33.7145 60.2127 33.3579C59.2597 33.1409 58.2477 33.1939 57.2777 33.0329C55.5957 32.7539 53.8667 32.9649 52.2047 32.5129C52.1602 32.5052 52.115 32.5015 52.0697 32.5019C50.4497 32.4099 48.8307 32.3149 47.2107 32.2279C45.4525 32.221 43.6961 32.1151 41.9497 31.9109C39.9722 31.7 37.9824 31.6265 35.9947 31.6909C34.4507 31.6429 32.9047 31.7019 31.3597 31.6759C29.155 31.6707 26.9535 31.8406 24.7757 32.1839C22.7447 32.4739 20.7437 32.8509 18.7417 33.2839C16.1961 33.8993 13.6959 34.6892 11.2587 35.6479C8.97533 36.5538 6.78227 37.6727 4.7087 38.9899C4.44095 39.1538 4.18228 39.3321 3.93373 39.5239C3.24573 40.0429 2.39574 39.7679 2.38674 38.9129C2.22011 37.2467 2.29896 35.5651 2.62075 33.9219C3.65914 30.4449 5.41447 27.224 7.7737 24.4669C8.3197 23.8059 8.89273 23.1669 9.44673 22.5139C9.51328 22.4161 9.56861 22.3111 9.61171 22.2009C9.48258 22.1591 9.34743 22.1392 9.21175 22.1419C8.55473 22.2462 7.90378 22.3857 7.26174 22.5599C5.51087 23.1143 3.85752 23.9393 2.36171 25.0049C2.04086 25.2501 1.69924 25.467 1.34072 25.6529C1.08672 25.7699 0.679722 25.9009 0.509722 25.7829C0.312528 25.672 0.158751 25.4974 0.0735651 25.2878C-0.0116209 25.0782 -0.0231746 24.8459 0.0407282 24.6289C0.224567 23.8986 0.447902 23.1789 0.709734 22.4729C1.44778 20.7871 2.46168 19.2362 3.70973 17.8839C4.40973 17.1179 5.02374 16.2599 5.78774 15.5659C7.48892 14.0239 9.34087 12.6571 11.3157 11.4859C12.2787 10.9129 13.2707 10.3859 14.2577 9.85688C17.1126 8.39914 20.0951 7.20615 23.1677 6.29288C25.2449 5.62022 27.3811 5.14577 29.5477 4.87588C31.5137 4.63088 33.4767 4.50188 35.4477 4.32988C37.4307 4.15688 39.4157 4.14088 41.1907 4.10988ZM42.0397 5.77288C39.8397 5.94288 37.1177 5.52988 34.4087 6.01588C33.3157 6.21588 32.1757 6.14088 31.0517 6.26588C29.4137 6.45205 27.7884 6.7369 26.1847 7.11888C22.257 7.97081 18.4723 9.38327 14.9467 11.3129C11.4017 13.2735 8.17377 15.7593 5.3727 18.6859C4.10045 20.1979 2.9082 21.7754 1.80074 23.4119C1.74574 23.4839 1.77469 23.6179 1.76369 23.7239C1.84916 23.7119 1.93205 23.6855 2.00875 23.6459C2.47075 23.2899 2.90874 22.8939 3.38674 22.5679C4.97719 21.5651 6.74615 20.8785 8.5967 20.5459C9.56165 20.2587 10.5968 20.3192 11.5217 20.7169C12.4407 21.1889 12.6467 21.8489 12.0557 22.6329C11.7902 22.9436 11.5042 23.2362 11.1997 23.5089C10.4469 24.1643 9.7501 24.8814 9.11672 25.6529C7.56605 27.6847 6.26349 29.8943 5.23671 32.2349C4.42681 33.937 4.00826 35.7989 4.01174 37.6839C4.02709 37.8167 4.04979 37.9486 4.07973 38.0789C4.19472 38.0441 4.30295 37.99 4.39974 37.9189C5.75166 36.6591 7.33898 35.6787 9.0707 35.0339C12.1242 33.586 15.3246 32.4709 18.6167 31.7079C20.4457 31.3189 22.2167 30.6999 24.0977 30.4889C24.8977 30.3989 25.7137 30.4149 26.4977 30.2669C28.5 29.987 30.5166 29.82 32.5377 29.7669C34.0365 29.6856 35.5386 29.6819 37.0377 29.7559C38.5677 29.8019 40.0947 29.9279 41.6237 30.0179C43.1964 30.1112 44.7697 30.2032 46.3437 30.2939C46.3887 30.2939 46.4337 30.3009 46.4787 30.3069C47.8047 30.4829 49.1267 30.6909 50.4557 30.8269C51.7507 30.9589 53.0557 31.0169 54.3557 31.1139C54.5327 31.1269 54.7057 31.1879 54.8827 31.2139C55.9827 31.3639 57.0897 31.5239 58.1967 31.6519C59.2207 31.7709 60.2657 31.7709 61.2717 31.9699C62.7544 32.3111 64.2713 32.4812 65.7927 32.4769C66.0649 32.4583 66.3382 32.4624 66.6097 32.4889C67.835 32.7282 69.0731 32.8972 70.3177 32.9949C73.8459 33.1213 77.3785 33.0374 80.8967 32.7439C80.942 32.7462 80.9873 32.7428 81.0317 32.7339C82.4987 32.1819 84.0767 32.6879 85.5697 32.2249C86.4527 31.9509 87.4157 31.9459 88.3277 31.7469C89.5417 31.4819 90.7407 31.1469 91.9477 30.8469C96.1739 29.9422 100.259 28.473 104.094 26.4789C106.39 25.1532 108.543 23.5936 110.518 21.8249C111.918 20.6049 112.749 18.8309 114.428 17.8929C114.498 17.8539 114.528 17.7469 114.579 17.6719C114.479 17.6269 114.388 17.5429 114.292 17.5429C111.976 17.5249 109.659 17.4929 107.344 17.5199C107.038 17.5565 106.728 17.501 106.454 17.3604C106.18 17.2198 105.954 17.0006 105.806 16.7309C105.224 15.8209 105.106 15.7919 105.793 15.1059C106.654 14.2439 107.32 13.2289 108.093 12.3059C110.21 9.79389 111.704 6.87888 113.593 4.22288C113.689 4.07281 113.768 3.91208 113.828 3.74388C113.847 3.66176 113.856 3.57726 113.852 3.49289C113.742 3.48489 113.615 3.43788 113.524 3.47588C112.118 4.05488 110.744 4.72288 109.31 5.21888C105.893 6.37781 102.368 7.1899 98.7887 7.64288C96.9737 7.88488 95.1377 8.04288 93.3087 8.20388C91.0637 8.39688 88.8027 8.45888 86.5477 8.49088C83.3237 8.53555 80.0987 8.53555 76.8727 8.49088C75.1167 8.46788 73.3627 8.31988 71.6077 8.22688C71.5177 8.22688 71.4267 8.21688 71.3367 8.20388C70.1487 8.03188 68.9637 7.82588 67.7717 7.69388C66.5629 7.66207 65.3572 7.55519 64.1617 7.37388C62.1859 7.01245 60.1905 6.76902 58.1857 6.64488C56.2367 6.41188 54.2677 6.29088 52.3087 6.07488C50.4297 5.86788 48.5297 5.84288 46.6367 5.78388C45.2677 5.73888 43.9037 5.77288 42.0397 5.77288Z" fill="black"/>
<path d="M58.0307 16.025C57.9007 17.138 57.7737 18.252 57.6407 19.365C57.6426 19.5001 57.6124 19.6338 57.5527 19.755C56.8607 20.702 56.8627 21.864 56.5527 22.928C56.2081 24.4016 55.675 25.8247 54.9667 27.162C54.8924 27.323 54.8096 27.4799 54.7187 27.632C53.1117 29.775 50.8767 28.887 49.7027 26.986C48.9466 25.866 48.4738 24.5791 48.3247 23.236C48.3117 23.08 48.1647 22.936 48.0797 22.786C47.9358 22.9096 47.809 23.0519 47.7027 23.209C46.9661 24.7601 45.9405 26.1563 44.6807 27.323C44.4709 27.5425 44.2104 27.7071 43.922 27.8023C43.6337 27.8974 43.3264 27.9202 43.0271 27.8686C42.7279 27.8171 42.446 27.6927 42.2062 27.5066C41.9663 27.3204 41.7758 27.0781 41.6517 26.801C40.5457 24.841 41.0017 22.916 41.6917 20.982C41.7367 20.856 41.7917 20.734 41.8457 20.612C42.2457 19.729 42.2457 19.737 41.3657 19.678C41.0548 19.6598 40.7462 19.6133 40.4437 19.539C40.1127 19.455 39.7437 19.161 39.4877 19.249C39.2127 19.349 39.0627 19.783 38.8437 20.059C37.7517 21.43 36.6947 22.831 35.5437 24.15C34.9282 24.8119 34.2448 25.4072 33.5047 25.926C33.0712 26.2904 32.5635 26.5559 32.017 26.7043C31.4705 26.8526 30.8982 26.8802 30.34 26.785C29.7818 26.6898 29.251 26.4742 28.7845 26.1532C28.318 25.8322 27.927 25.4134 27.6387 24.926C27.3657 24.534 27.2247 24.052 26.9867 23.632C26.8867 23.456 26.8027 23.087 26.4997 23.584C25.8717 24.615 25.1147 25.566 24.4607 26.584C24.1563 27.1584 23.7269 27.6571 23.204 28.0432C22.6811 28.4293 22.0782 28.6931 21.4397 28.815C20.9266 28.9559 20.3805 28.9131 19.8957 28.694C19.3628 28.4661 18.8686 28.1567 18.4307 27.777C17.0015 26.3779 16.183 24.4708 16.1537 22.471C16.073 19.8177 16.8474 17.2087 18.3627 15.029C18.9761 13.9663 19.9638 13.1704 21.1327 12.797C21.809 12.5598 22.5499 12.5869 23.2071 12.8728C23.8643 13.1588 24.3892 13.6825 24.6767 14.339C24.9487 14.9444 25.0866 15.6015 25.0807 16.2652C25.0749 16.9289 24.9254 17.5835 24.6427 18.184C24.4667 18.634 23.9657 18.958 23.6137 19.339C22.9877 18.966 23.2527 18.349 23.2777 17.855C23.3147 17.155 23.6457 16.473 23.2547 15.781C23.1267 15.554 23.0337 15.304 22.8857 15.092C22.6117 14.703 22.2727 14.703 22.0057 15.078C21.6373 15.5198 21.3368 16.0139 21.1137 16.544C20.7562 17.5985 20.4886 18.6814 20.3137 19.781C20.1427 21.072 20.0482 22.3719 20.0307 23.674C20.029 24.2529 20.126 24.8278 20.3177 25.374C20.4617 25.809 20.5457 26.409 21.1757 26.459C21.5449 26.5492 21.9313 26.5412 22.2965 26.436C22.6617 26.3307 22.9931 26.1318 23.2577 25.859C24.0097 24.911 24.7187 23.929 25.4577 22.972C26.2144 21.7597 26.6771 20.3871 26.8087 18.964C27.1703 16.7396 28.1878 14.6737 29.7307 13.031C30.4463 12.345 31.3196 11.8453 32.2737 11.576C32.9596 11.4631 33.6624 11.6271 34.2274 12.0322C34.7924 12.4372 35.1734 13.0501 35.2867 13.736C35.3418 14.3866 35.2534 15.0413 35.0275 15.6539C34.8017 16.2665 34.4439 16.822 33.9797 17.281C33.0694 18.404 31.9242 19.3139 30.6247 19.947C30.4122 20.0331 30.2406 20.1971 30.1449 20.4054C30.0492 20.6137 30.0366 20.8507 30.1097 21.068C30.3008 22.1766 30.8239 23.201 31.6097 24.006C31.9533 24.241 32.3685 24.3478 32.7829 24.3077C33.1972 24.2677 33.5844 24.0834 33.8767 23.787C34.8147 22.745 35.8467 21.787 36.7597 20.723C37.3012 20.0162 37.8059 19.2819 38.2717 18.523C38.3542 18.4257 38.3972 18.301 38.3924 18.1735C38.3876 18.046 38.3353 17.9249 38.2457 17.834C37.1676 16.1612 36.6989 14.168 36.9187 12.19C36.9513 11.5611 37.1108 10.9453 37.3874 10.3796C37.6641 9.81385 38.0523 9.30991 38.5287 8.89802C38.8082 8.5673 39.1914 8.34101 39.616 8.25602C40.0406 8.17103 40.4814 8.23236 40.8667 8.43001C41.3115 8.59607 41.6937 8.89635 41.9603 9.28927C42.2269 9.68219 42.3647 10.1483 42.3547 10.623C42.2763 11.4212 42.1247 12.2106 41.9017 12.981C41.7187 13.713 41.4707 14.43 41.2427 15.151C40.9427 16.11 40.9317 16.116 41.8987 16.457C42.3987 16.633 42.9247 16.757 43.4237 16.943C44.8577 17.478 45.0957 18.094 44.5967 19.394C44.0887 20.714 43.7507 22.101 43.3537 23.462C43.2476 23.7553 43.1995 24.0664 43.2117 24.378C43.285 24.7675 43.3917 25.1499 43.5307 25.521C43.7947 25.321 44.0647 25.121 44.3207 24.914C45.9906 23.4579 47.2191 21.5629 47.8667 19.444C47.9969 19.1109 48.0647 18.7567 48.0667 18.399C48.1332 17.0985 48.4383 15.8212 48.9667 14.631C49.0897 14.3363 49.2793 14.0741 49.5207 13.865C49.6332 13.7723 49.7638 13.7041 49.9042 13.6647C50.0446 13.6252 50.1916 13.6155 50.336 13.6361C50.4803 13.6567 50.6188 13.7072 50.7425 13.7843C50.8663 13.8614 50.9726 13.9635 51.0547 14.084C51.2129 14.3568 51.3181 14.6571 51.3647 14.969C51.4857 16.038 51.5177 17.119 51.6647 18.184C51.9527 20.297 52.0377 22.452 52.9737 24.438C53.1737 24.865 53.3147 24.909 53.6337 24.611C54.5734 23.6419 55.2835 22.4742 55.7117 21.194C56.5038 19.0947 56.8774 16.8608 56.8117 14.618C56.7954 14.1197 56.8178 13.6209 56.8787 13.126C56.9065 13.0199 56.9594 12.922 57.033 12.8407C57.1066 12.7594 57.1988 12.6971 57.3017 12.659C57.4257 12.632 57.6867 12.875 57.7567 13.05C57.8626 13.3446 57.9174 13.655 57.9187 13.968C57.9417 14.648 57.9257 15.33 57.9257 16.012L58.0307 16.025ZM33.9757 14.674C33.8817 14.324 33.8697 13.836 33.7107 13.782C33.5473 13.7374 33.3763 13.7279 33.2089 13.754C33.0415 13.7802 32.8816 13.8416 32.7397 13.934C31.5233 14.9433 30.6917 16.3406 30.3847 17.891C30.3733 18.0676 30.3922 18.2448 30.4407 18.415C30.5924 18.3822 30.742 18.3401 30.8887 18.289C31.9755 17.7404 32.8983 16.9146 33.5637 15.895C33.7689 15.5142 33.9082 15.1013 33.9757 14.674V14.674ZM41.0927 11.355L40.9797 11.322C40.9917 11.1889 40.99 11.0548 40.9747 10.922C40.9273 10.7621 40.8688 10.6057 40.7997 10.454C40.6197 10.564 40.3717 10.631 40.2727 10.791C39.9311 11.3384 39.7225 11.9582 39.6636 12.6007C39.6047 13.2433 39.6973 13.8907 39.9337 14.491C39.9527 14.545 40.0237 14.581 40.0697 14.625C40.1003 14.5923 40.1259 14.5552 40.1457 14.515C40.4637 13.461 40.7794 12.4077 41.0927 11.355Z" fill="black"/>
<path d="M59.5306 20.3811C59.2766 18.7131 60.0195 17.0731 60.8595 15.4661C61.5211 14.0881 62.4613 12.8623 63.6206 11.8661C64.0144 11.535 64.4964 11.3261 65.0074 11.2652C65.5183 11.2042 66.0359 11.2939 66.4966 11.5231C66.9672 11.6881 67.3809 11.9843 67.6886 12.3768C67.9964 12.7693 68.1855 13.2416 68.2336 13.7381C68.2335 14.4057 68.0849 15.065 67.7986 15.6681C67.4611 16.6034 66.9002 17.4421 66.1645 18.1111C65.4585 18.7431 64.7306 19.3511 64.0506 20.0111C63.8299 20.2222 63.694 20.5067 63.6686 20.8111C63.7019 21.9737 64.0514 23.1052 64.6795 24.0841C65.0225 24.6471 65.4336 24.6841 66.0956 24.4291C67.0519 24.011 67.8814 23.3484 68.5005 22.5081C70.2693 20.186 71.4762 17.4858 72.0265 14.6191C72.0616 14.3046 72.08 13.9885 72.0816 13.6721C72.1738 13.0925 72.4587 12.5609 72.8904 12.1633C73.3221 11.7657 73.8753 11.5253 74.4605 11.4811C75.5811 11.3959 76.7066 11.5609 77.7555 11.9641C78.7836 12.4266 79.9065 12.6397 81.0326 12.5861C81.7056 12.6307 82.3778 12.4877 82.9745 12.1731C83.0262 12.1282 83.0876 12.096 83.1539 12.0788C83.2202 12.0616 83.2895 12.0599 83.3565 12.074C83.4235 12.088 83.4864 12.1173 83.5401 12.1597C83.5939 12.202 83.6372 12.2562 83.6665 12.3181C83.7019 12.4142 83.7171 12.5165 83.711 12.6187C83.705 12.721 83.678 12.8208 83.6316 12.9121C82.3316 15.5961 81.4675 18.4781 79.9895 21.0821C79.7835 21.4461 79.8196 21.6821 80.1756 21.8051C81.1787 22.2928 82.0877 22.9539 82.8606 23.7581C83.2816 24.0901 83.7176 24.4051 84.1266 24.7511C84.4366 25.0131 84.7775 25.2931 84.5995 25.7781C84.4617 25.9996 84.26 26.174 84.0209 26.2783C83.7818 26.3826 83.5166 26.4118 83.2605 26.3621C82.5173 26.1732 81.8397 25.7853 81.3006 25.2401C80.7843 24.7432 80.2347 24.2821 79.6556 23.8601C79.0436 23.4061 79.0345 23.4361 78.6195 24.1431C78.0785 25.0641 77.5745 26.0131 76.9555 26.8801C76.6274 27.4266 76.1451 27.8641 75.5692 28.1375C74.9933 28.411 74.3495 28.5082 73.7185 28.4171C72.8585 28.2981 72.1645 27.8521 72.1125 27.0441C72.0365 25.8491 71.8126 24.5841 72.6216 23.5161C72.9177 23.0743 73.2996 22.6965 73.7445 22.4051C74.5894 21.8142 75.5527 21.4139 76.5675 21.2321C77.004 21.1738 77.4185 21.0055 77.7722 20.7432C78.1259 20.4808 78.4072 20.1329 78.5896 19.7321C79.3166 18.4501 79.9896 17.1391 80.6676 15.8321C80.8559 15.4159 81.0228 14.9903 81.1676 14.5571C80.7855 14.655 80.3968 14.7249 80.0046 14.7661C78.8352 14.895 77.6521 14.73 76.5625 14.2861C75.863 13.999 75.1404 13.7715 74.4026 13.6061C74.2942 13.5569 74.1769 13.5306 74.0579 13.5289C73.9389 13.5272 73.8209 13.5502 73.7112 13.5963C73.6015 13.6424 73.5026 13.7107 73.4206 13.7969C73.3385 13.883 73.2752 13.9853 73.2345 14.0971C73.1655 14.2571 73.1956 14.4581 73.1346 14.6251C72.5076 16.3941 71.9915 18.2141 71.2035 19.9091C70.4627 21.3407 69.6217 22.7181 68.6866 24.0311C68.0702 25.0301 67.2357 25.8766 66.2456 26.5071C65.5975 26.9112 64.8424 27.1101 64.0794 27.0776C63.3163 27.0452 62.5809 26.7828 61.9696 26.3251C61.1912 25.7418 60.5631 24.9813 60.1376 24.1067C59.712 23.232 59.5011 22.2685 59.5226 21.2961C59.5376 21.0631 59.5306 20.8351 59.5306 20.3811ZM66.8786 14.7641C66.9147 14.3926 66.9087 14.0182 66.8606 13.6481C66.782 13.4395 66.6248 13.27 66.4226 13.1761C66.1524 13.0801 65.8564 13.0859 65.5902 13.1925C65.324 13.2991 65.1058 13.4991 64.9765 13.7551C64.1305 15.0201 64.0426 16.5161 63.6636 17.9231C63.6156 18.1011 63.6926 18.2711 63.9486 18.1111C65.0683 17.4231 66.0086 16.4793 66.6925 15.3571C66.79 15.1733 66.8517 14.9728 66.8746 14.7661L66.8786 14.7641ZM76.0785 23.0801C75.9935 23.0421 75.8866 22.9481 75.8116 22.9691C75.3849 23.0769 74.9651 23.2105 74.5545 23.3691C73.4545 23.8181 73.2675 24.4471 73.4685 25.5571C73.5156 25.7417 73.5771 25.9222 73.6526 26.0971C73.8587 26.019 74.0493 25.9049 74.2156 25.7601C74.7866 25.0221 75.3255 24.2601 75.8695 23.5011C75.9466 23.366 76.0141 23.2256 76.0716 23.0811L76.0785 23.0801Z" fill="black"/>
<path d="M85.3306 22.2929C85.7416 19.4439 86.4736 16.9579 88.3706 14.9489C89.4861 13.5817 90.8989 12.4872 92.5016 11.7489C93.459 11.2565 94.5696 11.153 95.6016 11.4599C96.4266 11.7599 96.7156 12.0949 96.5686 12.9189C96.5416 13.0689 96.4426 13.3099 96.4986 13.3539C97.1216 13.8419 96.8896 14.5179 96.9086 15.1269C96.9346 15.9889 96.9346 16.8513 96.9086 17.7139C96.8783 19.6457 97.4782 21.5347 98.6176 23.0949C98.8021 23.3927 99.0631 23.6354 99.3734 23.798C99.6837 23.9605 100.032 24.0368 100.382 24.0189C100.732 24.001 101.07 23.8896 101.362 23.6963C101.654 23.503 101.889 23.2349 102.043 22.9199C102.461 22.2299 102.782 21.4829 103.163 20.7699C103.34 20.4369 103.502 19.9839 103.976 20.0939C104.332 20.1769 104.445 20.7779 104.176 21.2939C103.657 22.4919 102.929 23.588 102.027 24.5309C101.365 25.1372 100.533 25.5266 99.644 25.6469C98.7546 25.7672 97.8497 25.6127 97.0506 25.2039C95.0426 24.2099 94.3436 22.4729 94.1726 20.4159C94.1086 19.6489 94.1606 18.8729 94.1516 18.1009C94.1364 18.0173 94.1081 17.9366 94.0676 17.8619C94.0113 17.9273 93.9592 17.9961 93.9116 18.0679C93.1376 19.4229 92.3406 20.7679 91.6016 22.1379C91.0593 23.1237 90.3517 24.0089 89.5096 24.7549C89.2567 25.0313 88.9371 25.238 88.5814 25.3552C88.2256 25.4724 87.8457 25.4962 87.4781 25.4243C87.1106 25.3525 86.7676 25.1873 86.4822 24.9447C86.1969 24.7021 85.9787 24.3902 85.8486 24.0389C85.6247 23.4734 85.4513 22.8891 85.3306 22.2929V22.2929ZM87.8706 21.9029C88.0806 22.3449 87.5906 23.1189 88.2356 23.3099C88.6026 23.4179 89.1676 22.9339 89.6136 22.6679C89.8431 22.5197 90.0368 22.3223 90.1806 22.0899C91.6106 19.8899 93.0386 17.6789 94.4376 15.4539C94.7376 14.9729 94.9066 14.4069 95.1666 13.8959C95.3154 13.6469 95.4825 13.4092 95.6666 13.1849C95.3526 13.1538 95.037 13.1412 94.7216 13.1469C94.5045 13.1847 94.2923 13.2461 94.0886 13.3299C92.5546 13.8732 91.2134 14.8539 90.2306 16.1509C88.8386 17.7598 88.0111 19.7799 87.8746 21.9029H87.8706Z" fill="black"/>
</svg>
